<?xml version="1.0" standalone="no"?>
<!DOCTYPE svg PUBLIC "-//W3C//DTD SVG 20010904//EN"
 "http://www.w3.org/TR/2001/REC-SVG-20010904/DTD/svg10.dtd">
<svg version="1.0" xmlns="http://www.w3.org/2000/svg"
 width="220.000000pt" height="345.000000pt" viewBox="0 0 220.000000 345.000000"
 preserveAspectRatio="xMidYMid meet">

<g transform="translate(0.000000,345.000000) scale(0.100000,-0.100000)"
fill="#000000" stroke="none">
<path d="M722 3225 c-29 -26 -52 -52 -52 -57 0 -6 -22 -35 -50 -64 l-50 -53 0
-100 0 -101 -149 0 c-82 0 -156 -3 -165 -6 -13 -5 -16 -25 -16 -118 l0 -113
392 -6 c490 -9 1281 -9 1302 -1 24 9 24 229 0 238 -9 3 -96 6 -194 6 l-178 0
-4 109 c-3 101 -5 111 -28 133 -14 13 -47 49 -73 80 -60 72 -101 101 -127 93
-11 -3 -20 -14 -20 -24 0 -20 76 -93 130 -126 58 -35 68 -59 72 -168 l3 -97
-450 0 -450 0 3 87 c2 49 8 100 13 115 6 14 38 46 72 71 92 68 124 104 111
125 -19 29 -39 24 -92 -23z"/>
<path d="M256 2512 c-3 -5 -6 -287 -7 -628 -1 -672 0 -683 56 -793 76 -151
274 -339 530 -503 89 -57 200 -118 214 -118 8 0 11 293 11 1025 l0 1025 -399
0 c-220 0 -402 -4 -405 -8z m531 -847 c2 -365 -1 -656 -6 -664 -7 -11 -14 -10
-39 7 -44 32 -147 147 -179 200 l-28 47 -3 508 c-2 406 0 508 10 512 33 13
196 44 218 42 l25 -2 2 -650z"/>
<path d="M1130 2045 l0 -475 263 -2 262 -3 3 -144 c2 -140 2 -146 -25 -200
-27 -56 -187 -231 -211 -231 -8 0 -12 59 -14 203 l-3 202 -115 3 c-63 1 -125
0 -137 -3 l-23 -5 0 -459 c0 -252 3 -460 6 -463 12 -12 283 154 409 251 91 69
232 209 280 276 110 155 125 223 125 567 0 213 -2 257 -16 276 -15 22 -18 22
-270 22 l-254 0 0 228 c0 126 3 231 6 235 3 3 18 2 32 -3 15 -4 59 -13 97 -20
129 -22 115 -6 115 -139 0 -78 4 -121 12 -129 15 -15 231 -16 259 -2 18 10 19
23 19 235 0 123 -3 230 -6 239 -5 14 -51 16 -410 16 l-404 0 0 -475z"/>
<path d="M720 548 c-80 -108 -233 -325 -237 -335 -4 -10 119 -13 605 -13 336
0 613 3 615 8 3 6 -153 226 -244 343 l-26 33 -49 -32 c-120 -77 -261 -152
-287 -152 -39 0 -215 93 -306 162 -33 25 -44 23 -71 -14z"/>
</g>
</svg>
